<svg width="1024" height="1024" viewBox="0 0 1024 1024" fill="none" xmlns="http://www.w3.org/2000/svg">
<g clip-path="url(#clip0_1_2)">
<rect width="1024" height="1024" fill="white"/>
<path d="M595.997 614.551L620.029 639.165C608.076 645.245 593.8 656.388 585.786 664.213C558.303 691.604 557.046 725.816 598.682 768.461C637.871 802.873 694.645 786.015 710.166 741.791L765.572 744.717C759.945 765.864 743.87 785.472 725.294 801.373C662.137 855.21 618.956 847.056 569.775 796.684C514.446 740.015 509.617 694.416 556.868 646.046C570.327 632.347 588.031 618.416 595.997 614.551Z" fill="#FF00A8"/>
<path d="M730.412 550.372C680.612 555.366 657.24 543.288 645.671 519.122C636.786 504.184 623.066 384.907 599.942 259.539L646.608 254.859L657.853 366.997C660.472 393.116 673 356.684 710.506 351.868C761.908 345.306 806.949 384.055 811.978 434.204C817.985 494.103 776.73 545.727 730.412 550.372ZM732.138 493.918C759.789 489.035 780.713 466.183 777.849 437.626C774.392 403.149 754.325 378.428 720.893 381.781C687.809 385.098 670.508 412.511 674.209 449.426C677.772 484.948 686.865 498.458 732.138 493.918Z" fill="#00AEEF"/>
<path d="M632.322 157.988C632.535 158.406 632.849 158.763 633.233 159.026C633.618 159.289 634.061 159.45 634.522 159.494C653.386 161.366 670.595 165.867 686.15 172.998C687.935 173.818 689.797 174.185 691.736 174.098C736.923 171.994 775.602 186.912 807.772 218.851C819.737 230.729 829.84 242.954 838.08 255.527C850.769 274.883 861.528 295.421 870.357 317.142C870.871 318.424 871.817 319.492 873.034 320.167C878.834 323.38 884.059 327.519 888.709 332.585C894.393 338.78 899.343 345.515 903.56 352.79C914.839 372.224 922.501 393.524 926.544 416.692C929.554 433.935 931.093 450.339 931.161 465.903C931.296 497.533 927.345 528.289 919.307 558.173C918.313 561.859 917.951 565.356 918.221 568.666C918.569 572.912 918.574 585.007 918.236 604.952C917.676 638 910.468 669.481 896.612 699.393C887.339 719.425 876.301 737.454 863.496 753.481C862.107 755.218 860.983 756.68 860.124 757.867C859.159 759.218 858.498 760.897 858.141 762.904C852.631 793.453 839.721 820.48 819.409 843.985C807.599 857.649 794.278 869.643 779.447 879.967C750.181 900.337 718.397 914.897 684.094 923.649C674.879 926.003 665.452 928.025 655.813 929.713C613.839 937.095 572.492 935.551 531.773 925.082C513.729 920.441 495.839 913.064 478.104 902.952C475.74 901.601 473.694 900.867 471.967 900.751C470.452 900.645 468.952 900.747 467.466 901.055C466.154 901.326 464.904 902.059 463.717 903.255C455.622 911.419 447.039 918.303 437.968 923.909C431.089 928.155 423.692 931.305 415.78 933.361C408.09 935.368 400.192 936.101 392.087 935.561C373.946 934.355 358.18 927.576 344.787 915.225C336.479 907.564 329.435 897.794 323.655 885.916C323.56 885.718 323.419 885.545 323.243 885.409C323.068 885.274 322.862 885.18 322.642 885.134C298.075 880.319 274.594 872.354 252.198 861.238C237.859 854.127 224.93 845.172 213.408 834.375C206.133 827.553 199.837 820.273 194.52 812.534C183.964 797.163 176.785 780.127 172.983 761.427C170.513 749.308 169.341 737.068 169.466 724.707C169.471 724.493 169.413 724.283 169.3 724.102C169.187 723.922 169.023 723.78 168.829 723.694C148.006 714.074 130.725 700.064 116.984 681.663C106.66 667.845 98.5787 652.807 92.7409 636.548C82.8505 608.971 77.3409 579.348 76.2119 547.679C75.5847 530.002 76.3615 514.192 78.5422 500.249C84.6597 461.16 101.975 428.975 130.488 403.695C131.801 402.537 132.539 401.084 132.703 399.338C135.607 369.831 146.245 344.526 164.617 323.423C179.718 306.084 197.999 292.517 219.458 282.723C220.563 282.222 221.43 281.309 221.876 280.176C231.853 254.335 246.447 231.462 265.659 211.556C272.606 204.348 279.862 198.018 287.427 192.566C315.786 172.11 347.725 161.785 383.243 161.592C384.835 161.592 386.177 161.009 387.267 159.841C406.006 139.945 426.438 123.628 448.563 110.891C471.152 97.8742 495.511 90.8207 521.641 89.7303C544.5 88.7751 565.332 93.8843 584.139 105.058C592.051 109.767 599.597 115.725 606.776 122.933C617.177 133.364 625.693 145.049 632.322 157.988ZM479.928 244.672C498.541 220.597 520.194 199.687 544.886 181.942C559.562 171.406 576.154 164.203 594.661 160.333C599.08 159.417 603.746 158.862 608.657 158.669C613.434 158.476 618.147 158.452 622.798 158.596C623.367 158.616 623.517 158.374 623.247 157.873C614.64 142.241 603.519 129.123 589.885 118.519C582.001 112.382 573.655 107.625 564.845 104.247C550.13 98.6124 534.638 96.3255 518.37 97.3869C502.295 98.4483 486.832 102.091 471.982 108.315C453.639 116.005 436.786 126.17 421.425 138.811C412.914 145.816 404.727 153.149 396.863 160.811C396.371 161.284 396.463 161.544 397.138 161.592C428.459 163.58 450.956 177.388 464.629 203.016C467.968 209.269 470.723 216.38 472.894 224.351C474.881 231.645 476.319 239.162 477.207 246.901C477.274 247.509 477.511 247.581 477.916 247.118C478.62 246.307 479.291 245.492 479.928 244.672ZM538.373 244.903C546.507 234.27 557.603 224.259 571.662 214.87C589.967 202.654 611.272 193.01 635.578 185.937C635.668 185.912 635.751 185.869 635.822 185.811C635.894 185.753 635.952 185.681 635.993 185.6C636.034 185.519 636.057 185.431 636.061 185.342C636.064 185.253 636.048 185.165 636.013 185.083L628.544 167.758C628.409 167.447 628.184 167.178 627.893 166.979C627.602 166.781 627.257 166.66 626.894 166.629C601.526 164.41 578.05 170.079 556.465 183.636C547.501 189.252 539.024 195.529 531.035 202.466C511.649 219.304 494.406 237.912 479.305 258.291C478.846 258.901 478.601 259.61 478.611 260.303L478.813 280.002C478.814 280.089 478.835 280.175 478.875 280.253C478.915 280.33 478.972 280.398 479.042 280.45C479.112 280.502 479.193 280.537 479.279 280.552C479.365 280.567 479.453 280.562 479.537 280.538C492.448 276.996 506.188 274.29 520.758 272.418C521.218 272.36 521.656 272.185 522.031 271.909C522.406 271.633 522.705 271.265 522.9 270.84C527.194 261.423 532.352 252.777 538.373 244.903ZM672.631 175.748C661.448 171.714 649.912 169.027 638.024 167.686C637.95 167.675 637.874 167.686 637.805 167.715C637.737 167.745 637.677 167.794 637.633 167.856C637.588 167.918 637.561 167.991 637.553 168.068C637.546 168.145 637.559 168.223 637.59 168.294L643.756 182.55C643.834 182.729 643.974 182.874 644.154 182.961C644.333 183.048 644.541 183.072 644.74 183.028L672.573 176.486C673.432 176.293 673.451 176.047 672.631 175.748ZM319.052 269.422C335.07 276.138 347.194 287.06 355.425 302.19C362.526 315.246 367.732 329.025 371.042 343.527C371.097 343.764 371.193 343.983 371.325 344.17C371.458 344.357 371.622 344.508 371.809 344.613C373.44 345.52 374.868 345.515 376.093 344.598C379.924 341.713 386.509 336.324 395.85 328.431C404.582 321.059 411.231 315.752 415.795 312.51C424.575 306.277 433.761 300.603 443.353 295.489C443.787 295.257 444.139 294.929 444.409 294.505C452.389 281.932 460.586 270.001 469 258.711C469.701 257.776 470.054 256.624 469.999 255.455C469.246 240.334 466.149 226.304 460.707 213.365C456.558 203.513 451.333 195.48 445.032 189.266C435.035 179.405 422.617 173.244 407.776 170.783C402.469 169.905 396.844 169.365 390.9 169.162C390.266 169.14 389.634 169.258 389.051 169.508C388.468 169.758 387.948 170.134 387.527 170.61C360.848 200.474 337.892 233.035 318.661 268.293C318.608 268.392 318.576 268.5 318.567 268.612C318.558 268.724 318.572 268.837 318.609 268.943C318.645 269.049 318.704 269.147 318.78 269.229C318.856 269.311 318.949 269.377 319.052 269.422ZM295.402 264.805C297.332 264.901 302.07 265.446 309.615 266.44C309.825 266.465 310.037 266.426 310.226 266.328C310.414 266.23 310.569 266.077 310.672 265.89C329.565 231.732 351.695 199.832 377.063 170.19C377.381 169.823 377.295 169.649 376.802 169.669C345.79 171.078 318.005 180.476 293.448 197.864C285.912 203.2 278.627 209.505 271.593 216.781C254.774 234.178 241.449 254.181 231.616 276.789C231.375 277.339 231.539 277.508 232.108 277.295C244.209 272.809 256.42 269.388 268.742 267.034C278.593 265.152 287.48 264.409 295.402 264.805ZM763.888 245.106C781.855 253.163 797.144 264.737 809.755 279.828C818.739 290.587 826.361 302.157 832.624 314.536C832.762 314.805 832.983 315.022 833.254 315.155C833.525 315.288 833.832 315.33 834.129 315.275C842.572 313.731 851.242 313.74 860.138 315.303C860.901 315.439 861.132 315.149 860.833 314.435C850.73 290.959 838.346 269.147 823.679 248.999C819.675 243.49 815.641 238.491 811.579 234.005C807.266 229.228 802.755 224.64 798.046 220.24C771.134 195.094 739.128 182.208 702.027 181.581C701.323 181.571 701.255 181.778 701.825 182.203C719.946 195.721 731.245 213.543 735.722 235.669C735.774 235.933 735.906 236.175 736.099 236.364C736.293 236.552 736.54 236.679 736.808 236.726C746.244 238.443 755.271 241.237 763.888 245.106ZM707.354 197.69C701.024 191.254 694.303 186.232 687.192 182.623C686.777 182.416 686.302 182.34 685.831 182.406C672.814 184.297 659.962 186.975 647.273 190.439C647.181 190.463 647.094 190.507 647.019 190.566C646.944 190.625 646.882 190.699 646.836 190.782C646.79 190.866 646.761 190.958 646.752 191.054C646.742 191.149 646.752 191.245 646.781 191.336C652.078 208.116 655.962 225.258 658.432 242.761C658.456 242.918 658.514 243.067 658.601 243.199C658.688 243.331 658.803 243.442 658.936 243.525C659.07 243.608 659.22 243.66 659.376 243.678C659.531 243.696 659.688 243.68 659.836 243.63C681.769 236.238 704.092 233.421 726.806 235.177C726.893 235.184 726.981 235.17 727.061 235.137C727.142 235.104 727.214 235.052 727.27 234.985C727.327 234.919 727.367 234.84 727.387 234.755C727.407 234.67 727.406 234.581 727.385 234.497C723.969 220.052 717.292 207.783 707.354 197.69ZM549.764 271.68C564.864 271.892 579.859 273.272 594.748 275.819C595.205 275.893 595.67 275.795 596.051 275.544C613.139 264.081 631.198 254.446 650.226 246.64C650.422 246.557 650.586 246.413 650.693 246.23C650.8 246.047 650.844 245.836 650.819 245.627C648.658 228.085 644.735 210.745 639.052 193.608C639.015 193.491 638.954 193.382 638.873 193.289C638.792 193.196 638.693 193.121 638.582 193.068C638.47 193.015 638.349 192.985 638.226 192.981C638.103 192.977 637.98 192.998 637.865 193.044C634.835 194.231 631.796 195.321 628.747 196.315C606.862 203.397 586.676 213.751 568.189 227.376C552.47 238.945 540.201 253.462 531.382 270.927C531.347 270.998 531.33 271.078 531.334 271.157C531.337 271.236 531.36 271.313 531.401 271.38C531.442 271.447 531.498 271.502 531.566 271.539C531.634 271.576 531.71 271.595 531.787 271.593C538.136 271.564 544.128 271.593 549.764 271.68ZM827.341 483.3C828.402 484.892 829.391 486.499 830.308 488.12C830.373 488.235 830.468 488.332 830.582 488.4C830.696 488.468 830.826 488.505 830.958 488.508C831.091 488.511 831.222 488.48 831.339 488.417C831.456 488.354 831.554 488.261 831.625 488.149C849.708 459.529 856.182 428.363 851.049 394.648C847.421 370.834 840.121 347.768 829.15 325.45C829.031 325.209 828.83 325.02 828.582 324.916C828.335 324.813 828.059 324.802 827.804 324.885C822.873 326.516 817.928 328.368 812.968 330.443C812.891 330.472 811.989 330.93 810.262 331.818C807.56 333.217 805.514 332.6 804.125 329.965C803.083 327.968 803.565 326.458 805.572 325.435C811.545 322.376 817.909 319.814 824.663 317.75C824.75 317.722 824.829 317.676 824.896 317.614C824.963 317.552 825.016 317.477 825.05 317.393C825.085 317.308 825.1 317.218 825.096 317.127C825.092 317.036 825.067 316.947 825.025 316.867C819.641 306.513 813.374 296.796 806.224 287.717C788.681 265.446 766.059 251.199 738.356 244.976C738.271 244.956 738.183 244.956 738.098 244.975C738.013 244.994 737.934 245.032 737.866 245.087C737.797 245.141 737.742 245.21 737.705 245.288C737.667 245.367 737.647 245.453 737.647 245.54V258.552C737.647 259.067 737.499 259.537 737.227 259.884C735.22 262.479 733.136 262.561 730.975 260.13C730.674 259.782 730.491 259.331 730.454 258.841L729.354 244.208C729.33 243.93 729.21 243.669 729.013 243.473C728.817 243.276 728.558 243.157 728.283 243.137C704.604 241.14 682.054 243.943 660.632 251.547C660.43 251.618 660.257 251.751 660.141 251.924C660.026 252.098 659.975 252.301 659.996 252.502L661.515 270.088C661.728 272.558 660.637 273.923 658.244 274.184C656.575 274.367 655.321 273.827 654.481 272.563C654.008 271.849 653.709 270.662 653.584 269.002C653.236 264.351 652.817 259.84 652.324 255.469C652.311 255.351 652.27 255.237 652.206 255.138C652.141 255.038 652.054 254.954 651.952 254.894C651.849 254.834 651.734 254.798 651.615 254.79C651.497 254.782 651.378 254.801 651.268 254.847C636.041 261.099 621.413 268.674 607.383 277.57C606.592 278.072 606.669 278.444 607.615 278.685L621.828 282.289C622.248 282.401 622.64 282.7 622.928 283.128C624.578 285.589 624.371 287.384 622.306 288.513C621.177 289.13 619.643 289.236 617.703 288.831C611.528 287.538 605.579 286.197 599.857 284.807C598.342 284.441 596.953 284.716 595.689 285.632C568.237 305.481 544.543 328.47 524.608 354.6C524.463 354.796 524.359 355.014 524.304 355.238C524.249 355.463 524.244 355.689 524.29 355.902L527.402 370.81C527.512 371.348 527.777 371.856 528.173 372.285C528.568 372.713 529.08 373.048 529.66 373.256C549.324 380.368 564.527 391.995 575.266 408.138C580.438 415.906 584.308 424.691 586.874 434.495C591.689 452.828 591.646 471.543 586.744 490.638C586.68 490.885 586.668 491.142 586.707 491.393C586.747 491.645 586.839 491.885 586.976 492.1C593.576 502.396 600.475 512.166 607.673 521.409C607.728 521.482 607.799 521.542 607.879 521.584C607.96 521.627 608.049 521.651 608.14 521.655C608.232 521.659 608.323 521.643 608.407 521.608C608.491 521.573 608.567 521.52 608.628 521.453L624.274 504.215C624.478 503.988 624.628 503.714 624.713 503.411C624.798 503.108 624.816 502.784 624.766 502.463C621.457 481.476 616.965 460.76 611.291 440.313C610.741 438.325 610.568 436.791 610.77 435.71C611.243 433.24 612.917 432.425 615.793 433.264C616.302 433.411 616.765 433.684 617.137 434.059C617.51 434.434 617.779 434.898 617.92 435.406C623.488 455.149 627.941 474.717 631.28 494.112C631.473 495.222 631.921 495.323 632.626 494.416L643.553 480.29C643.693 480.114 643.874 479.975 644.083 479.882C644.292 479.789 644.522 479.745 644.755 479.754C647.929 479.87 649.415 481.143 649.213 483.575C649.097 484.81 648.359 486.335 646.998 488.149C642.598 494.015 638.135 499.834 633.61 505.604C633.472 505.779 633.371 505.98 633.311 506.196C633.252 506.412 633.235 506.639 633.263 506.863C635.308 522.659 636.249 538.426 636.085 554.163C636.083 554.263 636.101 554.362 636.139 554.454C636.177 554.546 636.233 554.63 636.305 554.7C636.377 554.77 636.462 554.826 636.556 554.863C636.65 554.9 636.751 554.918 636.852 554.916C647.987 554.723 659.035 554.27 669.997 553.556C684.49 552.629 699.441 553.179 714.851 555.206C715.091 555.238 715.334 555.187 715.538 555.06C715.742 554.932 715.893 554.738 715.965 554.511C718.194 547.776 721.74 541.692 726.604 536.259C729.132 533.442 731.337 533.365 733.218 536.028C734.308 537.562 734.251 539.053 733.044 540.5C728.78 545.595 725.726 550.748 723.883 555.958C723.851 556.041 723.838 556.129 723.844 556.218C723.85 556.307 723.876 556.394 723.92 556.475C723.963 556.555 724.024 556.626 724.097 556.684C724.17 556.743 724.255 556.786 724.346 556.812L745 562.66C745.236 562.728 745.48 562.749 745.714 562.722C745.949 562.694 746.169 562.619 746.36 562.5C758.46 555.273 770.218 547.515 781.633 539.227C798.316 527.117 812.93 512.908 825.474 496.601C825.648 496.376 825.746 496.097 825.754 495.802C825.762 495.506 825.679 495.21 825.517 494.951L819.149 484.892C819.03 484.705 818.952 484.492 818.92 484.265C818.887 484.038 818.901 483.804 818.961 483.575C819.665 480.642 821.185 479.493 823.52 480.13C824.89 480.497 826.164 481.554 827.341 483.3ZM469.825 270.753L458.42 287.89C458.14 288.315 458.236 288.435 458.709 288.252L470.216 283.707C470.422 283.626 470.598 283.487 470.722 283.309C470.846 283.131 470.912 282.922 470.911 282.709L470.983 271.13C470.993 269.702 470.607 269.576 469.825 270.753ZM305.722 273.952C293.332 272.36 281.493 272.567 270.203 274.574C264.597 275.568 257.602 277.324 249.216 279.843C242.414 281.879 235.601 284.315 228.78 287.152C228.265 287.361 227.802 287.678 227.42 288.079C227.038 288.481 226.747 288.959 226.565 289.482C218.498 312.515 213.5 335.996 211.57 359.926C211.564 360.011 211.579 360.097 211.613 360.176C211.647 360.254 211.699 360.323 211.765 360.376C211.831 360.429 211.908 360.464 211.99 360.479C212.073 360.494 212.157 360.488 212.236 360.462C231.776 354.633 251.412 350.46 271.144 347.942C271.368 347.915 271.579 347.831 271.757 347.699C271.935 347.567 272.073 347.391 272.157 347.189C282.453 322.323 293.762 298.138 306.084 274.632C306.119 274.567 306.137 274.493 306.137 274.419C306.137 274.344 306.118 274.27 306.083 274.203C306.047 274.137 305.996 274.079 305.933 274.035C305.87 273.991 305.798 273.963 305.722 273.952ZM353.644 344.41C356.086 344.487 358.995 344.434 362.372 344.251C362.463 344.245 362.551 344.219 362.63 344.176C362.71 344.132 362.779 344.072 362.833 343.999C362.887 343.926 362.924 343.842 362.942 343.753C362.96 343.664 362.958 343.572 362.937 343.484C359.048 327.389 352.757 312.563 344.063 299.006C337.424 288.643 327.732 281.155 314.985 276.543C314.795 276.475 314.588 276.475 314.402 276.544C314.216 276.614 314.063 276.747 313.972 276.919C301.997 299.324 291.065 322.328 281.174 345.93C281.137 346.023 281.125 346.124 281.138 346.224C281.15 346.323 281.188 346.418 281.247 346.499C281.307 346.58 281.385 346.645 281.477 346.687C281.568 346.729 281.668 346.747 281.768 346.74C305.572 344.415 329.531 343.638 353.644 344.41ZM522.206 343.469C522.312 344.203 522.596 344.28 523.059 343.701C541.017 321.209 561.738 301.143 585.224 283.505C585.996 282.916 585.904 282.545 584.949 282.39C567.339 279.515 548.654 278.613 528.892 279.684C528.55 279.704 528.221 279.829 527.948 280.04C527.675 280.251 527.469 280.541 527.358 280.87C520.633 300.651 518.915 321.518 522.206 343.469ZM471.316 357.364L505.387 365.484C505.619 365.54 505.854 365.537 506.063 365.475C506.272 365.413 506.445 365.295 506.559 365.137L514.563 353.919C514.906 353.44 515.141 352.867 515.256 352.237C515.371 351.607 515.361 350.933 515.229 350.258C510.762 327.553 511.982 304.554 518.891 281.261C518.913 281.183 518.916 281.1 518.898 281.021C518.881 280.942 518.844 280.868 518.791 280.806C518.738 280.744 518.67 280.697 518.594 280.668C518.518 280.639 518.436 280.629 518.356 280.639C505.339 282.337 492.298 285.15 479.233 289.077C479.05 289.133 478.888 289.243 478.769 289.393C478.65 289.543 478.58 289.725 478.567 289.917C477.101 312.245 474.495 334.443 470.751 356.51C470.721 356.695 470.762 356.885 470.866 357.043C470.971 357.201 471.131 357.316 471.316 357.364ZM422.583 349.23L462.226 355.526C462.397 355.551 462.57 355.51 462.711 355.41C462.851 355.31 462.947 355.16 462.979 354.99C466.549 334.206 469.048 313.557 470.476 293.043C470.482 292.963 470.469 292.883 470.437 292.809C470.404 292.736 470.355 292.671 470.292 292.621C470.229 292.571 470.155 292.537 470.076 292.523C469.997 292.508 469.916 292.512 469.84 292.536C464.919 294.157 460.133 296.106 455.482 298.384C455.404 298.422 454.555 298.765 452.934 299.411C450.956 300.203 449.282 301.693 447.912 303.884C439.083 318.049 430.51 332.908 422.192 348.463C422.152 348.536 422.131 348.617 422.13 348.701C422.129 348.784 422.149 348.867 422.187 348.942C422.225 349.017 422.281 349.082 422.35 349.132C422.419 349.182 422.499 349.216 422.583 349.23ZM150.202 360.476C145.483 371.37 142.468 382.476 141.156 393.795C141.069 394.595 141.349 394.764 141.995 394.301C160.917 380.966 181.093 370.694 202.524 363.487C202.82 363.388 203.081 363.204 203.274 362.957C203.467 362.71 203.584 362.411 203.61 362.097C205.221 338.891 209.568 316.157 216.651 293.897C216.988 292.826 216.665 292.556 215.681 293.086C202.336 300.169 190.226 308.81 179.352 319.009C166.769 330.819 157.053 344.642 150.202 360.476ZM394.837 346.408C400.761 347.035 406.696 347.614 412.639 348.144C412.85 348.166 413.063 348.124 413.251 348.023C413.439 347.923 413.594 347.769 413.696 347.58L434.422 310.571C435.156 309.258 434.9 309.017 433.655 309.847C417.599 320.413 402.508 332.199 388.381 345.206C388.015 345.534 388.073 345.751 388.555 345.858C389.472 346.079 390.403 346.21 391.349 346.248C393.549 346.345 394.711 346.398 394.837 346.408ZM863.829 324.625C855.29 321.604 846.519 321.006 837.516 322.83C837.431 322.846 837.351 322.881 837.282 322.933C837.213 322.985 837.157 323.051 837.118 323.128C837.079 323.205 837.058 323.29 837.056 323.376C837.055 323.463 837.074 323.548 837.111 323.626C841.482 333.082 845.419 342.717 848.921 352.53C855.241 370.255 858.99 388.512 860.167 407.299C862.203 439.768 854.069 469.241 835.765 495.719C835.641 495.894 835.567 496.1 835.549 496.316C835.531 496.532 835.57 496.75 835.663 496.949C846.798 521.236 852.409 546.589 852.496 573.008C852.535 583.671 851.526 593.238 849.471 601.71C846.692 613.192 842.162 624.245 835.88 634.869C835.669 635.224 835.556 635.63 835.554 636.045C835.551 636.459 835.659 636.868 835.866 637.228C842.707 649.309 848.111 661.501 852.076 673.803C852.289 674.479 852.622 674.537 853.075 673.977C879.06 641.749 897.674 605.748 908.915 565.974C909.822 562.761 910.213 559.427 910.087 555.973C908.35 510.371 902.86 465.222 893.616 420.527C886.968 388.444 877.589 357.007 865.479 326.217C865.334 325.849 865.112 325.516 864.827 325.241C864.542 324.967 864.202 324.756 863.829 324.625ZM917.585 530.065C923.953 496.563 925.029 462.897 920.812 429.067C917.946 406.073 911.284 384.382 900.824 363.993C897.524 357.567 894.07 351.917 890.461 347.044C886.36 341.496 881.955 336.517 877.246 332.107C876.976 331.857 876.74 331.808 876.537 331.963C876.437 332.043 876.374 332.174 876.355 332.336C876.337 332.498 876.365 332.682 876.436 332.86C880.884 344.217 884.787 355.762 888.145 367.496C903.41 420.74 912.828 474.905 916.398 529.992C916.6 533.148 916.996 533.172 917.585 530.065ZM230.053 577.408C230.583 577.772 231.006 578.272 231.276 578.855C231.546 579.438 231.653 580.083 231.587 580.723C229.001 605.425 227.94 629.75 228.403 653.699C228.702 668.713 229.865 683.872 231.891 699.176C231.935 699.514 232.061 699.837 232.258 700.114C232.455 700.392 232.717 700.616 233.02 700.768C247.262 707.764 262.084 713.003 277.484 716.486C279.23 716.882 280.933 716.747 282.593 716.081C291.412 712.588 300.299 708.198 309.254 702.91C309.687 702.653 310.058 702.301 310.338 701.88C310.619 701.46 310.802 700.981 310.875 700.478L311.815 693.893C311.848 693.689 311.804 693.48 311.692 693.304C311.581 693.129 311.408 692.998 311.207 692.938C305.109 691.046 299.373 688.981 293.998 686.743C274.468 678.638 259.845 665.22 250.128 646.491C248.729 643.79 249.255 641.73 251.706 640.311C253.906 639.037 255.561 639.544 256.67 641.831C262.72 654.288 271.535 664.294 283.114 671.849C291.75 677.475 301.317 681.788 311.815 684.789C311.956 684.831 312.105 684.841 312.251 684.819C312.397 684.797 312.538 684.743 312.664 684.661C312.789 684.579 312.898 684.471 312.981 684.343C313.064 684.215 313.121 684.071 313.147 683.92L318.734 649.068C319.033 647.234 320.143 646.269 322.063 646.173C324.118 646.067 325.416 646.834 325.956 648.474C326.226 649.295 326.212 650.607 325.913 652.411C324.099 663.344 322.367 674.508 320.717 685.903C320.656 686.317 320.761 686.74 321.011 687.085C321.262 687.43 321.638 687.67 322.063 687.756L328.504 689.073C328.771 689.128 329.043 689.126 329.3 689.068C329.558 689.011 329.795 688.899 329.994 688.74C344.333 677.393 357.219 664.497 368.654 650.052C368.73 649.956 368.784 649.845 368.814 649.726C368.844 649.606 368.848 649.481 368.826 649.359C368.804 649.236 368.757 649.119 368.687 649.014C368.618 648.909 368.528 648.819 368.422 648.749L341.906 631.395C340.497 630.479 340.029 629.176 340.502 627.487C341.38 624.351 343.354 623.748 346.422 625.678C355.348 631.304 364.259 636.924 373.155 642.54C373.396 642.696 373.688 642.751 373.969 642.694C374.251 642.637 374.499 642.473 374.66 642.236C393.862 614.533 407.463 584.307 415.462 551.558C415.515 551.336 415.512 551.105 415.454 550.885C415.396 550.665 415.284 550.464 415.129 550.299C404.11 538.566 396.429 525.197 392.087 510.192C392.067 510.125 391.792 509.319 391.262 507.775C390.229 504.765 391.098 502.951 393.867 502.333C396.472 501.754 398.113 502.753 398.788 505.329C402.397 519.069 408.693 531.073 417.676 541.34C417.995 541.706 418.217 541.653 418.342 541.181L436.043 475.455C436.067 475.362 436.071 475.265 436.056 475.17C436.041 475.075 436.006 474.984 435.955 474.903C435.903 474.822 435.836 474.752 435.757 474.698C435.677 474.643 435.588 474.606 435.493 474.587C429.424 473.381 423.379 472.064 417.358 470.636C415.708 470.24 414.55 469.603 413.884 468.725C412.736 467.191 412.91 465.642 414.405 464.079C414.799 463.663 415.282 463.353 415.806 463.178C416.331 463.003 416.88 462.969 417.401 463.08L436.825 467.104C437.108 467.162 437.401 467.117 437.643 466.977C437.886 466.837 438.059 466.613 438.128 466.351C446.976 432.936 454.681 399.053 461.242 364.702C461.272 364.55 461.271 364.393 461.241 364.241C461.21 364.089 461.149 363.945 461.063 363.818C460.977 363.691 460.866 363.583 460.737 363.502C460.609 363.42 460.466 363.365 460.316 363.342L418.53 356.8C418.295 356.763 418.053 356.805 417.84 356.919C417.626 357.034 417.452 357.215 417.343 357.436C409.894 372.151 402.619 387.084 395.517 402.233C394.697 403.979 393.756 405.113 392.695 405.634C390.774 406.589 389.124 405.904 387.745 403.579C387.626 403.382 387.548 403.163 387.515 402.934C387.483 402.706 387.497 402.472 387.556 402.247C388.01 400.491 389.013 397.92 390.567 394.533C396.347 381.883 402.508 369.165 409.05 356.38C409.091 356.302 409.112 356.216 409.111 356.129C409.111 356.041 409.089 355.955 409.047 355.878C409.006 355.801 408.946 355.735 408.874 355.686C408.801 355.637 408.717 355.607 408.63 355.598C399.512 354.73 390.596 353.866 381.883 353.008C378.525 352.67 376.122 353.895 374.675 356.684C374.487 357.069 374.431 357.557 374.516 358.073L380.623 391.681C381 393.766 380.165 395.179 378.12 395.922C376.489 396.52 375.181 396.236 374.197 395.068C373.657 394.431 373.247 393.331 372.967 391.768C371.249 382.466 369.546 373.15 367.858 363.819C367.636 362.613 367.071 362.425 366.164 363.255C354.624 373.792 343.653 384.555 333.251 395.546C332.924 395.892 332.493 396.107 332.035 396.154C328.687 396.501 327.09 395.391 327.244 392.825C327.331 391.474 328.074 390.031 329.473 388.497C340.522 376.349 352.327 364.968 364.891 354.354C366.357 353.109 366.13 352.438 364.21 352.342C335.678 350.875 307.01 351.821 278.207 355.179C277.989 355.204 277.781 355.289 277.608 355.424C277.434 355.56 277.301 355.74 277.223 355.946C269.513 375.601 262.392 395.691 255.86 416.214C255.828 416.316 255.822 416.423 255.842 416.528C255.862 416.632 255.908 416.73 255.976 416.812C256.043 416.894 256.13 416.958 256.229 416.997C256.328 417.037 256.435 417.052 256.54 417.039C264.858 416.123 273.214 416.132 281.609 417.068C284.31 417.377 285.328 418.945 284.663 421.772C284.248 423.519 283.143 424.344 281.348 424.247C273.397 423.861 264.679 424.035 255.194 424.768C254.569 424.819 253.975 425.06 253.491 425.458C253.007 425.857 252.657 426.394 252.488 426.997C250.519 434.089 248.536 441.206 246.539 448.346C246.5 448.462 246.355 449.079 246.105 450.199C245.333 453.576 243.393 454.618 240.286 453.325C238.443 452.563 237.787 451.217 238.318 449.287L244.281 427.171C244.301 427.094 244.302 427.013 244.284 426.936C244.266 426.858 244.229 426.787 244.177 426.728C244.126 426.669 244.06 426.624 243.987 426.598C243.914 426.572 243.836 426.565 243.76 426.578C233.86 428.256 224.544 430.341 215.811 432.83C215.2 433.004 214.676 433.398 214.342 433.933C214.007 434.469 213.886 435.108 214.002 435.725L219.372 464.455C219.456 464.953 219.395 465.436 219.198 465.83C217.615 468.899 215.512 469.299 212.887 467.032C212.548 466.729 212.301 466.311 212.178 465.83C209.795 456.336 207.899 446.739 206.49 437.042C206.477 436.954 206.445 436.869 206.397 436.794C206.348 436.719 206.285 436.655 206.211 436.607C206.137 436.559 206.053 436.528 205.967 436.515C205.88 436.503 205.792 436.51 205.708 436.535C185.86 442.846 167.006 451.935 149.145 463.804C148.932 463.947 148.772 464.154 148.688 464.395C148.605 464.635 148.602 464.895 148.682 465.136C152.841 477.911 158.297 491.217 165.052 505.054C165.328 505.62 165.437 506.253 165.365 506.879C165.293 507.505 165.044 508.097 164.646 508.586C161.993 511.866 159.6 511.341 157.467 507.008C151.572 495.091 146.492 483.102 142.227 471.041C142.182 470.916 142.106 470.805 142.006 470.719C141.906 470.632 141.786 470.573 141.656 470.547C141.527 470.52 141.392 470.528 141.267 470.569C141.141 470.61 141.028 470.683 140.938 470.78C132.698 479.822 126.802 489.895 123.252 501.001C117.983 517.473 117.226 535.449 120.979 554.931C125.572 578.841 134.343 601.082 147.292 621.654C156.131 635.694 166.258 648.595 177.673 660.357C177.943 660.627 178.126 660.579 178.223 660.213C186.531 629.094 197.738 599.611 211.845 571.764C211.955 571.548 212.102 571.357 212.275 571.203C212.449 571.049 212.647 570.935 212.858 570.866C215.628 569.949 217.365 570.471 218.069 572.429C218.484 573.607 218.286 575.15 217.476 577.061C215.507 581.692 213.471 586.295 211.368 590.869C200.329 614.847 191.486 639.887 184.837 665.988C184.759 666.289 184.765 666.606 184.854 666.905C184.944 667.203 185.113 667.472 185.344 667.681C196.778 678.112 209.158 687.269 222.483 695.152C223.005 695.461 223.236 695.311 223.178 694.703C219.222 657.178 219.449 619.575 223.858 581.895C224.08 580.023 224.466 578.672 225.016 577.842C226.194 576.057 227.873 575.913 230.053 577.408ZM210.774 377.164C210.205 392.439 210.876 408.128 212.786 424.233C212.807 424.401 212.864 424.564 212.953 424.708C213.042 424.853 213.162 424.976 213.304 425.07C213.446 425.163 213.606 425.225 213.774 425.25C213.942 425.276 214.114 425.264 214.277 425.217C224.65 422.226 235.346 419.818 246.365 417.995C246.583 417.955 246.786 417.857 246.952 417.712C247.118 417.567 247.24 417.379 247.306 417.17C253.636 396.877 260.651 376.831 268.351 357.031C268.38 356.962 268.391 356.886 268.382 356.812C268.373 356.737 268.345 356.666 268.301 356.607C268.256 356.548 268.197 356.502 268.13 356.475C268.062 356.448 267.988 356.44 267.917 356.452C249.506 358.874 230.815 362.98 211.845 368.769C211.533 368.864 211.26 369.06 211.07 369.327C210.879 369.594 210.78 369.916 210.789 370.246C210.856 372.957 210.851 375.263 210.774 377.164ZM515.562 368.393C518.187 369.956 519.19 369.614 518.573 367.365C518.495 367.057 518.351 366.458 518.138 365.571C517.704 363.708 516.754 364.36 515.287 367.525C515.218 367.676 515.208 367.848 515.259 368.008C515.31 368.167 515.417 368.305 515.562 368.393ZM446.392 469.174L456.365 471.953C456.564 472.01 456.778 471.984 456.96 471.88C457.141 471.777 457.276 471.605 457.334 471.403C466.713 436.405 481.452 403.651 501.552 373.141C501.598 373.069 501.626 372.988 501.635 372.903C501.644 372.818 501.632 372.733 501.601 372.653C501.569 372.574 501.52 372.504 501.456 372.447C501.392 372.391 501.316 372.351 501.233 372.33L470.216 365.122C470.087 365.095 469.955 365.093 469.826 365.118C469.697 365.143 469.574 365.193 469.465 365.266C469.356 365.339 469.262 365.433 469.19 365.542C469.117 365.652 469.068 365.775 469.044 365.904C462.424 400.679 454.666 434.731 445.77 468.059C445.707 468.289 445.737 468.535 445.853 468.744C445.97 468.952 446.163 469.106 446.392 469.174ZM140.142 406.835C139.621 423.056 141.542 439.271 145.903 455.482C145.924 455.566 145.965 455.644 146.022 455.709C146.079 455.775 146.15 455.826 146.231 455.858C146.311 455.891 146.398 455.903 146.485 455.896C146.571 455.888 146.654 455.86 146.728 455.814C165.071 444.332 184.307 435.141 204.435 428.242C204.628 428.172 204.793 428.041 204.903 427.871C205.013 427.7 205.062 427.5 205.043 427.301C203.161 408.977 202.428 390.774 202.843 372.692C202.847 372.577 202.823 372.462 202.773 372.359C202.722 372.255 202.647 372.165 202.553 372.097C202.459 372.028 202.349 371.984 202.233 371.966C202.117 371.949 201.998 371.959 201.887 371.997C179.164 379.967 158.78 391.189 140.736 405.663C140.558 405.804 140.414 405.982 140.311 406.184C140.209 406.387 140.151 406.609 140.142 406.835ZM465.396 474.79C488.101 481.727 509.112 491.579 528.429 504.345C535.483 509.015 546.034 517.246 560.083 529.037C560.154 529.096 560.236 529.139 560.325 529.164C560.413 529.19 560.506 529.196 560.597 529.184C560.688 529.172 560.775 529.141 560.854 529.093C560.932 529.046 561 528.982 561.053 528.907C568.599 518.158 574.181 506.463 577.799 493.822C577.863 493.605 577.877 493.376 577.842 493.151C577.807 492.926 577.723 492.711 577.597 492.52C561.646 468.252 548.089 443.912 536.925 419.5C531.541 407.718 526.432 394.32 521.598 379.306C521.521 379.074 521.398 378.865 521.24 378.699C521.081 378.532 520.891 378.413 520.686 378.351L510.684 375.109C510.439 375.03 510.171 375.037 509.923 375.128C509.675 375.219 509.46 375.391 509.309 375.616C489.22 405.779 474.38 438.475 464.788 473.704C464.726 473.929 464.755 474.169 464.869 474.372C464.982 474.575 465.172 474.725 465.396 474.79ZM556.508 398.108C549.098 391.344 540.732 386.08 531.411 382.317C531.035 382.162 530.914 382.278 531.049 382.664C538.662 405.002 548.181 426.496 559.606 447.145C566.09 458.859 572.753 470.177 579.594 481.1C580.25 482.152 580.684 482.065 580.897 480.84C583.54 464.986 582.875 449.682 578.899 434.929C575.001 420.445 567.537 408.172 556.508 398.108ZM151.707 704.85C157.149 708.738 162.856 712.173 168.829 715.155C168.901 715.191 168.98 715.209 169.06 715.207C169.14 715.205 169.218 715.182 169.288 715.142C169.357 715.102 169.415 715.045 169.456 714.976C169.497 714.907 169.521 714.83 169.524 714.75C170.431 700.305 172.467 685.735 175.632 671.039C175.721 670.612 175.703 670.169 175.579 669.75C175.455 669.331 175.23 668.949 174.923 668.636C158.606 652.348 145.213 634.613 134.744 615.431C123.763 595.322 116.555 574.909 113.12 554.192C110.158 536.322 110.698 519.32 114.741 503.187C116.854 494.773 119.812 487.358 123.613 480.941C127.666 474.109 132.751 467.828 138.869 462.096C139.052 461.922 139.184 461.702 139.251 461.459C139.317 461.217 139.315 460.961 139.245 460.721C134.951 445.562 132.539 429.964 132.008 413.927C131.979 413.223 131.714 413.122 131.212 413.624C104.831 439.86 89.6291 471.654 85.6054 509.005C82.1703 540.954 84.3462 573.988 92.133 608.107C97.3725 631.062 106.544 652.3 119.648 671.82C128.341 684.77 139.028 695.779 151.707 704.85ZM425.434 548.519C433.076 554.154 441.119 558.124 449.562 560.431C449.641 560.452 449.724 560.454 449.804 560.436C449.883 560.419 449.958 560.382 450.02 560.329C450.083 560.277 450.132 560.21 450.163 560.134C450.194 560.059 450.206 559.976 450.199 559.895C447.864 533.263 449.523 506.897 455.178 480.796C455.221 480.596 455.19 480.389 455.09 480.214C454.991 480.04 454.831 479.912 454.642 479.855L444.424 476.801C444.345 476.779 444.261 476.774 444.179 476.785C444.097 476.797 444.017 476.826 443.944 476.871C443.872 476.915 443.808 476.974 443.756 477.044C443.704 477.114 443.665 477.194 443.642 477.279L424.913 547.013C424.84 547.291 424.851 547.582 424.944 547.851C425.037 548.119 425.208 548.352 425.434 548.519ZM459.52 563.079C468.976 565.019 478.104 566.278 486.904 566.857C495.289 567.407 503.033 566.982 510.134 565.583C517.342 564.165 524.439 561.352 531.425 557.145C539.907 552.031 547.742 545.363 554.931 537.142C555.076 536.977 555.186 536.783 555.254 536.574C555.322 536.364 555.347 536.143 555.327 535.923C555.306 535.704 555.242 535.491 555.136 535.297C555.031 535.104 554.887 534.934 554.714 534.798C548.885 530.195 542.782 525.361 536.404 520.295C514.954 503.255 490.735 490.682 463.746 482.576C463.654 482.548 463.557 482.54 463.461 482.551C463.365 482.562 463.273 482.593 463.19 482.642C463.107 482.691 463.035 482.757 462.979 482.836C462.922 482.914 462.883 483.003 462.863 483.097C457.035 509.256 455.535 535.488 458.362 561.791C458.395 562.102 458.525 562.395 458.733 562.626C458.941 562.858 459.216 563.016 459.52 563.079ZM567.682 534.711C573.192 538.696 579.049 542.203 585.253 545.233C585.429 545.321 585.629 545.351 585.824 545.317C586.019 545.283 586.199 545.188 586.339 545.045L601.985 528.661C602.135 528.501 602.225 528.293 602.238 528.073C602.251 527.854 602.187 527.637 602.057 527.459L584.558 502.811C583.864 501.836 583.328 501.913 582.952 503.042C579.468 513.502 574.316 523.706 567.494 533.654C567.381 533.82 567.337 534.023 567.372 534.221C567.408 534.418 567.519 534.594 567.682 534.711ZM755.739 566.871C786.549 580.071 811.265 600.441 829.888 627.979C829.944 628.06 830.019 628.126 830.107 628.17C830.194 628.215 830.291 628.237 830.388 628.234C830.485 628.231 830.579 628.203 830.661 628.154C830.743 628.104 830.811 628.034 830.858 627.951C840.218 611.142 844.869 593.189 844.811 574.094C844.743 549.961 839.991 526.823 830.554 504.678C830.509 504.577 830.439 504.49 830.351 504.424C830.263 504.358 830.16 504.315 830.053 504.301C829.945 504.286 829.835 504.3 829.736 504.341C829.636 504.381 829.549 504.448 829.483 504.533C818.174 518.476 805.394 530.904 791.142 541.817C780.026 550.338 768.201 558.361 755.667 565.887C755.049 566.263 755.073 566.592 755.739 566.871ZM625.562 514.795L613.506 527.995C613.322 528.198 613.216 528.459 613.205 528.734C613.195 529.009 613.281 529.28 613.448 529.5L627.01 547.274C628.033 548.606 628.491 548.446 628.385 546.796L626.387 515.07C626.339 514.327 626.064 514.235 625.562 514.795ZM594.748 548.663C603.567 551.375 612.372 553.078 621.163 553.773C621.645 553.811 621.741 553.638 621.452 553.252L607.702 534.986C607.658 534.928 607.601 534.88 607.537 534.846C607.472 534.812 607.401 534.792 607.328 534.788C607.256 534.784 607.183 534.795 607.115 534.822C607.047 534.849 606.985 534.89 606.935 534.942L594.603 548.142C594.567 548.182 594.541 548.231 594.528 548.283C594.515 548.336 594.516 548.391 594.531 548.443C594.545 548.495 594.573 548.543 594.611 548.581C594.649 548.62 594.696 548.648 594.748 548.663ZM489.524 575.092C482.162 574.745 472.512 573.52 460.576 571.416C460.492 571.402 460.405 571.408 460.323 571.432C460.241 571.457 460.167 571.499 460.105 571.557C460.043 571.615 459.996 571.686 459.967 571.764C459.938 571.843 459.929 571.927 459.94 572.01C463.336 598.863 475.258 621.703 495.704 640.528C495.874 640.686 496.097 640.776 496.328 640.778C496.558 640.781 496.78 640.697 496.949 640.543C516.981 622.441 535.594 603.2 552.789 582.821C561.608 572.362 570.688 562.114 580.028 552.079C580.081 552.021 580.119 551.951 580.14 551.874C580.161 551.798 580.164 551.719 580.148 551.641C580.133 551.564 580.099 551.491 580.051 551.429C580.002 551.367 579.94 551.317 579.869 551.283C574.147 548.562 568.628 545.18 563.311 541.137C563.079 540.962 562.789 540.883 562.499 540.915C562.209 540.947 561.94 541.089 561.748 541.311C557.058 546.753 552.185 551.592 547.129 555.828C530.552 569.703 511.35 576.125 489.524 575.092ZM500.032 714.489C489.823 710.851 479.754 706.847 469.825 702.476C469.626 702.387 469.405 702.351 469.182 702.371C468.96 702.391 468.743 702.467 468.551 702.592C463.215 706.065 458.203 709.959 453.513 714.272C453.452 714.327 453.404 714.396 453.375 714.472C453.345 714.549 453.334 714.632 453.342 714.714C453.351 714.796 453.379 714.875 453.423 714.944C453.468 715.013 453.529 715.07 453.6 715.111C465.71 722.117 475.291 731.843 482.345 744.29C482.391 744.372 482.453 744.444 482.528 744.5C482.603 744.556 482.69 744.596 482.781 744.616C482.873 744.637 482.968 744.638 483.06 744.619C483.151 744.6 483.238 744.562 483.315 744.508C488.477 740.783 493.412 737.169 498.121 733.667C500.524 731.882 502.468 732.046 503.954 734.159C505.353 736.147 505.131 737.821 503.288 739.181L486.427 751.629C486.25 751.758 486.117 751.936 486.047 752.136C485.976 752.336 485.973 752.548 486.036 752.743C490.812 767.574 492.901 782.588 492.303 797.785C491.82 810.223 491.579 816.456 491.579 816.485C492.013 826.028 493.895 835.19 497.224 843.971C497.581 844.897 498.015 844.936 498.527 844.087C506.439 830.896 513.898 817.73 520.903 804.588C521.733 803.034 522.674 802.026 523.725 801.563C525.645 800.733 527.189 801.293 528.357 803.242C528.671 803.764 528.844 804.357 528.862 804.966C528.88 805.574 528.741 806.177 528.458 806.716C519.813 823.177 511.138 838.524 502.434 852.757C502.23 853.096 502.125 853.487 502.13 853.885C502.135 854.284 502.25 854.675 502.463 855.015C512.556 870.829 525.93 882.708 542.585 890.649C543.385 891.025 544.23 891.184 545.117 891.126C592.562 887.72 638.907 878.694 684.152 864.046C684.441 863.951 684.697 863.78 684.893 863.553C685.09 863.326 685.219 863.051 685.267 862.758C686.135 857.547 686.545 852.149 686.497 846.562C686.458 842.615 688.243 841.11 691.852 842.046C692.552 842.232 693.169 842.636 693.602 843.19C694.036 843.744 694.261 844.417 694.24 845.1L693.835 859.69C693.835 859.767 693.852 859.844 693.886 859.914C693.92 859.983 693.969 860.044 694.029 860.09C694.09 860.137 694.161 860.168 694.235 860.181C694.309 860.195 694.386 860.19 694.458 860.167C729.6 847.836 762.368 830.911 792.763 809.393C813.123 794.987 832.175 777.71 849.92 757.563C850.923 756.424 851.526 755.102 851.729 753.597C854.392 733.951 853.408 713.355 848.776 691.809C848.603 690.998 848.231 690.892 847.662 691.49C823.751 716.067 795.06 733.392 761.587 743.465C759.995 743.938 758.615 743.586 757.447 742.409C755.344 740.286 755.406 738.511 757.635 737.082C758.32 736.639 759.7 736.098 761.775 735.461C793.964 725.494 821.841 707.831 845.404 682.473C845.672 682.188 845.86 681.838 845.949 681.459C846.038 681.081 846.025 680.686 845.911 680.317C842.07 667.599 837.004 655.586 830.713 644.277C830.662 644.185 830.59 644.107 830.502 644.05C830.413 643.993 830.313 643.959 830.208 643.951C830.104 643.942 829.999 643.959 829.902 644.001C829.806 644.043 829.722 644.108 829.657 644.19C814.922 662.205 797.506 676.1 777.406 685.874C771.627 688.692 765.75 691.297 759.777 693.69C759.696 693.721 759.622 693.77 759.561 693.834C759.5 693.897 759.453 693.973 759.424 694.057C759.395 694.141 759.385 694.23 759.393 694.32C759.402 694.409 759.429 694.495 759.473 694.573C763.381 701.144 765.297 708.236 765.22 715.85C765.21 717.345 764.829 718.493 764.076 719.294C762.889 720.558 761.5 720.756 759.908 719.888C758.972 719.367 758.33 718.522 757.983 717.355C757.664 716.274 757.486 715.169 757.447 714.04C757.351 711.493 757.216 709.877 757.042 709.192C756.019 705.014 754.388 701.077 752.15 697.381C752.044 697.203 751.879 697.067 751.683 696.994C751.486 696.92 751.268 696.914 751.064 696.976C704.092 711.527 656.512 713.794 608.324 703.778C605.565 703.199 603.992 702.828 603.606 702.664C601.387 701.689 600.933 699.808 602.245 697.019C602.542 696.387 603.044 695.874 603.668 695.566C604.292 695.258 605 695.173 605.676 695.326C652.513 705.814 699.243 704.145 745.868 690.318C746.011 690.274 746.141 690.196 746.247 690.091C746.353 689.985 746.432 689.856 746.476 689.715C746.52 689.573 746.529 689.424 746.501 689.279C746.474 689.134 746.41 688.999 746.317 688.885C738.752 679.66 730.56 670.904 721.74 662.615C712.236 653.68 707.431 649.159 707.325 649.053C702.597 644.431 697.893 639.785 693.213 635.115C693.151 635.054 693.076 635.008 692.993 634.98C692.91 634.953 692.821 634.944 692.733 634.955C692.644 634.966 692.559 634.997 692.482 635.044C692.404 635.092 692.338 635.156 692.286 635.231C683.043 648.942 671.536 660.541 657.767 670.026C656.136 671.155 654.611 671.034 653.193 669.664C650.752 667.3 650.998 665.148 653.931 663.209C654.645 662.736 655.036 662.475 655.103 662.427C667.715 653.347 678.261 642.41 686.743 629.615C686.925 629.347 687.01 629.023 686.984 628.695C686.958 628.367 686.822 628.054 686.598 627.806L670.663 610.379C670.519 610.222 670.328 610.114 670.118 610.07C669.908 610.026 669.689 610.048 669.49 610.133L646.072 620.497C645.635 620.683 645.148 620.699 644.711 620.54C641.469 619.315 640.572 617.544 642.019 615.228C642.724 614.099 644.05 613.091 645.999 612.203C651.644 609.656 657.627 606.988 663.947 604.199C664.03 604.163 664.104 604.107 664.161 604.037C664.219 603.966 664.26 603.883 664.279 603.795C664.299 603.706 664.298 603.614 664.275 603.525C664.252 603.437 664.209 603.356 664.15 603.287L635.709 570.374C635.207 569.795 634.932 569.882 634.884 570.635C634.054 584.336 631.569 597.773 627.43 610.944C627.28 611.41 626.981 611.792 626.59 612.015C623.753 613.597 621.775 612.883 620.656 609.873C620.496 609.459 620.475 608.973 620.598 608.483C624.284 593.72 626.778 578.552 628.081 562.978C628.089 562.874 628.076 562.77 628.043 562.671C628.01 562.572 627.957 562.481 627.888 562.403C627.82 562.325 627.736 562.261 627.642 562.216C627.549 562.17 627.447 562.144 627.343 562.138C614.316 561.453 601.502 559.118 588.9 555.133C588.697 555.068 588.478 555.063 588.268 555.119C588.057 555.175 587.865 555.291 587.714 555.452C581.818 561.724 571.465 573.457 556.653 590.652C539.748 610.259 521.805 628.689 502.825 645.941C502.72 646.039 502.637 646.158 502.583 646.291C502.528 646.424 502.504 646.567 502.511 646.711C502.518 646.854 502.556 646.995 502.623 647.122C502.69 647.249 502.783 647.36 502.898 647.447L515.91 657.318C516.305 657.619 516.588 658.014 516.72 658.447C517.646 661.457 516.513 663.223 513.319 663.744C512.837 663.819 512.358 663.709 511.987 663.44L496.529 652.353C496.356 652.23 496.151 652.163 495.947 652.163C495.743 652.163 495.551 652.23 495.4 652.353C481.805 663.836 467.442 674.614 452.312 684.688C451.559 685.189 451.608 685.633 452.457 686.019L467.451 692.822C467.654 692.914 467.873 692.955 468.086 692.94C468.3 692.924 468.5 692.854 468.667 692.735C475.856 687.795 483.228 683.153 490.783 678.811C492.375 677.895 493.798 677.6 495.053 677.928C497.369 678.527 498.083 680.206 497.195 682.965C497.055 683.396 496.753 683.775 496.341 684.036L477.713 696.049C476.845 696.609 476.883 697.082 477.829 697.468L503.534 708.063C504.042 708.271 504.481 708.621 504.801 709.071C505.121 709.522 505.309 710.055 505.344 710.61C505.459 712.578 504.895 713.91 503.65 714.605C502.791 715.078 501.585 715.039 500.032 714.489ZM381.42 647.519C401.586 659.542 421.878 670.677 442.296 680.924C442.482 681.017 442.689 681.059 442.897 681.047C443.105 681.034 443.307 680.967 443.483 680.852C459.539 670.624 474.78 659.431 489.205 647.273C489.345 647.155 489.459 647.009 489.538 646.844C489.618 646.679 489.662 646.499 489.668 646.316C489.673 646.133 489.64 645.951 489.57 645.782C489.501 645.612 489.396 645.46 489.263 645.333C467.389 624.607 454.898 599.505 451.791 570.027C451.769 569.806 451.681 569.598 451.539 569.429C451.396 569.261 451.207 569.141 450.995 569.086C440.622 566.326 431.335 562.225 423.133 556.783C423.02 556.708 422.891 556.662 422.756 556.647C422.621 556.633 422.485 556.651 422.357 556.701C422.23 556.75 422.116 556.829 422.024 556.932C421.933 557.034 421.866 557.157 421.83 557.29C413.677 589.701 400.139 619.445 381.217 646.52C381.161 646.598 381.122 646.686 381.102 646.78C381.082 646.874 381.081 646.97 381.1 647.064C381.119 647.158 381.157 647.247 381.212 647.325C381.267 647.403 381.338 647.469 381.42 647.519ZM712.217 562.862C705.607 561.917 699.046 561.28 692.532 560.952C687.534 560.71 680.958 560.792 672.805 561.198C661.969 561.738 651.138 562.283 640.311 562.833C639.829 562.862 639.747 563.06 640.065 563.427L671.43 599.886C671.564 600.04 671.745 600.145 671.946 600.187C672.147 600.229 672.357 600.204 672.544 600.118L704.936 584.732C705.351 584.536 705.72 584.257 706.019 583.913C706.318 583.569 706.541 583.168 706.673 582.735L712.622 563.485C712.643 563.418 712.65 563.348 712.64 563.279C712.631 563.209 712.606 563.143 712.567 563.083C712.528 563.024 712.477 562.974 712.417 562.935C712.356 562.897 712.288 562.872 712.217 562.862ZM735.418 568.044L721.451 564.527C721.263 564.478 721.061 564.509 720.886 564.614C720.712 564.719 720.577 564.889 720.51 565.091L716.544 577.336C716.129 578.61 716.525 578.928 717.731 578.291L735.476 568.854C736.142 568.497 736.123 568.227 735.418 568.044ZM716.877 647.345C722.831 652.971 728.76 658.62 734.665 664.294C741.526 670.875 748.044 678.165 754.22 686.164C754.441 686.449 754.749 686.655 755.098 686.752C755.447 686.848 755.819 686.83 756.159 686.699C767.777 682.106 778.487 676.761 788.291 670.663C802.446 661.853 814.826 650.433 825.43 636.403C825.536 636.262 825.596 636.092 825.601 635.916C825.606 635.74 825.557 635.566 825.459 635.419C806.373 605.931 780.282 584.693 747.185 571.706C746.977 571.62 746.748 571.584 746.515 571.602C746.282 571.619 746.051 571.689 745.839 571.807L713.838 588.9C713.522 589.07 713.244 589.294 713.02 589.56C712.797 589.825 712.632 590.128 712.535 590.449C708.753 602.954 703.745 614.963 697.511 626.474C697.339 626.789 697.273 627.151 697.322 627.508C697.372 627.865 697.535 628.198 697.786 628.457C704.319 635.183 710.683 641.479 716.877 647.345ZM909.581 589.552C897.075 624.076 879.123 655.287 855.724 683.182C855.58 683.354 855.479 683.557 855.429 683.776C855.378 683.995 855.38 684.223 855.434 684.442C859.902 703.701 861.624 723.222 860.601 743.002C860.553 743.948 860.809 744.04 861.369 743.277C875.003 725.002 886.114 705.274 894.702 684.094C903.347 662.77 908.408 639.732 909.885 614.982C910.377 606.79 910.623 598.376 910.623 589.74C910.623 587.694 910.275 587.632 909.581 589.552ZM678.348 607.036L690.868 620.844C690.925 620.905 690.996 620.952 691.075 620.979C691.154 621.006 691.239 621.014 691.323 621.001C691.406 620.988 691.486 620.956 691.556 620.906C691.625 620.856 691.682 620.79 691.722 620.714C696.025 612.444 699.668 604.064 702.65 595.573C702.949 594.724 702.688 594.492 701.868 594.878L678.522 606.153C678.444 606.191 678.375 606.247 678.322 606.316C678.269 606.385 678.232 606.466 678.216 606.551C678.199 606.637 678.202 606.725 678.225 606.809C678.248 606.893 678.29 606.971 678.348 607.036ZM341.154 691.288L406.589 700.16C406.994 700.216 407.379 700.161 407.689 700.001L434.625 686.222C434.982 686.038 434.977 685.855 434.611 685.672C414.81 675.762 395.536 665.225 376.788 654.061C376.619 653.961 376.418 653.927 376.222 653.964C376.026 654.001 375.846 654.107 375.717 654.264C365.084 667.493 353.456 679.472 340.835 690.202C340.121 690.81 340.227 691.172 341.154 691.288ZM178.078 719.121C194.115 725.2 211.001 727.983 228.736 727.472C228.849 727.471 228.961 727.444 229.063 727.393C229.164 727.342 229.254 727.268 229.324 727.177C229.395 727.086 229.445 726.979 229.471 726.865C229.497 726.751 229.498 726.632 229.474 726.517L225.06 706.253C224.992 705.949 224.861 705.664 224.677 705.417C224.492 705.169 224.257 704.966 223.989 704.821C209.254 696.947 195.712 687.476 183.361 676.409C183.287 676.343 183.197 676.298 183.101 676.278C183.004 676.258 182.904 676.264 182.811 676.295C182.717 676.325 182.633 676.38 182.567 676.454C182.501 676.527 182.455 676.616 182.435 676.713C179.607 689.99 177.933 703.788 177.412 718.107C177.404 718.323 177.463 718.536 177.583 718.718C177.702 718.899 177.875 719.04 178.078 719.121ZM421.324 703.272C429.024 705.144 436.41 707.556 443.483 710.509C443.89 710.679 444.338 710.735 444.778 710.672C445.219 710.608 445.636 710.427 445.987 710.147L460.417 698.539C460.476 698.492 460.521 698.431 460.549 698.361C460.577 698.291 460.586 698.215 460.576 698.141C460.566 698.067 460.536 697.996 460.491 697.937C460.445 697.877 460.385 697.83 460.316 697.801L444.134 690.549C443.932 690.459 443.711 690.418 443.488 690.428C443.264 690.438 443.045 690.499 442.846 690.607L421.222 702.331C420.441 702.756 420.474 703.069 421.324 703.272ZM391.392 705.877L332.744 697.989C331.869 697.868 330.997 698.064 330.298 698.539L318.661 706.499C318.467 706.63 318.304 706.802 318.184 707.002C318.064 707.202 317.99 707.426 317.967 707.657L316.664 719.294C316.643 719.472 316.662 719.653 316.718 719.823C316.774 719.994 316.867 720.151 316.991 720.284C317.114 720.417 317.265 720.523 317.433 720.594C317.601 720.666 317.783 720.701 317.967 720.698C343.711 720.023 368.219 715.357 391.493 706.702C392.564 706.307 392.531 706.032 391.392 705.877ZM314.551 798.263C321.402 799.865 327.958 800.815 334.221 801.114C356.655 802.205 378.284 798.659 399.106 790.476C399.31 790.398 399.486 790.263 399.614 790.085C399.743 789.908 399.818 789.697 399.83 789.477C401.133 770.642 407.458 753.718 418.805 738.704C424.44 731.245 430.809 724.133 437.911 717.369C437.967 717.315 438.008 717.247 438.031 717.173C438.055 717.098 438.058 717.018 438.042 716.942C438.027 716.865 437.992 716.794 437.941 716.735C437.89 716.675 437.825 716.63 437.751 716.602C427.88 712.926 418.091 710.33 408.384 708.815C407.912 708.74 407.429 708.8 406.995 708.989C378.616 721.379 348.506 727.925 316.664 728.63C316.441 728.632 316.227 728.718 316.062 728.87C315.896 729.022 315.791 729.23 315.767 729.455C313.605 752.237 312.872 774.772 313.567 797.062C313.575 797.344 313.677 797.616 313.855 797.833C314.033 798.051 314.278 798.202 314.551 798.263ZM238.94 726.821C247.094 726.126 255.459 724.563 264.038 722.131C265.031 721.851 265.031 721.567 264.038 721.277C254.311 718.469 244.599 714.856 234.902 710.436C234.149 710.099 233.874 710.316 234.077 711.088L237.985 726.198C238.035 726.392 238.158 726.562 238.333 726.676C238.509 726.79 238.724 726.841 238.94 726.821ZM296.878 719.555C299.715 719.931 302.388 720.163 304.897 720.25C305.071 720.259 305.775 720.365 307.01 720.568C308.351 720.78 309.022 720.168 309.022 718.73C309.022 717.591 309.065 716.694 309.152 716.038C309.287 715.025 309.253 714.021 309.051 713.027C309.034 712.947 308.998 712.872 308.945 712.809C308.893 712.746 308.824 712.695 308.746 712.662C308.668 712.628 308.582 712.612 308.494 712.616C308.406 712.619 308.319 712.641 308.24 712.68L296.719 718.469C295.619 719.029 295.672 719.391 296.878 719.555ZM462.154 730.902C458.217 727.477 453.378 724.196 447.637 721.06C447.263 720.853 446.832 720.77 446.406 720.822C445.98 720.874 445.58 721.059 445.263 721.35C432.343 733.218 422.351 746.326 415.288 760.675C411.322 768.722 408.891 777.31 407.993 786.438C407.982 786.539 407.998 786.642 408.039 786.735C408.08 786.828 408.144 786.909 408.227 786.969C408.309 787.03 408.406 787.067 408.507 787.078C408.608 787.089 408.711 787.073 408.804 787.031C432.02 776.987 454.116 764.641 475.094 749.993C475.26 749.878 475.382 749.709 475.437 749.516C475.493 749.324 475.479 749.118 475.397 748.936C472.339 741.941 467.924 735.929 462.154 730.902ZM264.645 773.194C275.153 782.651 288.556 790.114 304.853 795.585C304.93 795.611 305.012 795.617 305.091 795.603C305.171 795.59 305.247 795.557 305.312 795.507C305.377 795.457 305.43 795.393 305.466 795.318C305.502 795.244 305.52 795.162 305.519 795.079C305.317 773.04 306.026 751.03 307.647 729.05C307.658 728.865 307.596 728.682 307.472 728.54C307.348 728.397 307.172 728.305 306.981 728.283L282.202 725.489C281.189 725.373 280.296 725.45 279.524 725.721C267.482 729.812 254.823 732.769 241.545 734.593C241.434 734.606 241.327 734.644 241.233 734.704C241.138 734.765 241.057 734.846 240.996 734.943C240.936 735.039 240.896 735.149 240.881 735.263C240.866 735.378 240.875 735.495 240.909 735.606C245.801 750.842 253.713 763.372 264.645 773.194ZM221.543 831.133C234.009 842.181 247.851 851.116 263.068 857.938C280.851 865.899 299.479 872.045 318.951 876.378C319.472 876.493 319.646 876.301 319.472 875.799C311.531 853.355 307.15 830.12 306.33 806.093C306.313 805.536 306.122 804.998 305.785 804.555C305.448 804.111 304.98 803.784 304.448 803.618C290.949 799.488 278.14 793.13 266.02 784.542C256.381 777.72 248.864 769.658 243.47 760.356C239.62 753.708 235.905 745.545 232.326 735.867C232.255 735.674 232.123 735.508 231.949 735.393C231.775 735.279 231.567 735.222 231.356 735.23C213.09 736.011 195.287 733.546 177.948 727.834C177.869 727.806 177.785 727.797 177.702 727.809C177.62 727.82 177.541 727.852 177.473 727.9C177.405 727.948 177.349 728.012 177.311 728.086C177.273 728.16 177.253 728.242 177.253 728.326C177.311 739.779 178.585 751.093 181.074 762.267C187.153 789.651 200.643 812.606 221.543 831.133ZM447.217 869.242C453.373 875.331 460.118 881.082 467.451 886.495C467.614 886.612 467.814 886.663 468.012 886.639C468.211 886.615 468.393 886.517 468.522 886.365C477.139 875.924 485.08 865.103 492.346 853.9C492.47 853.71 492.545 853.491 492.562 853.263C492.58 853.036 492.541 852.807 492.448 852.597C488.81 844.617 486.335 836.392 485.023 827.92C484.337 823.558 484.029 816.91 484.096 807.975C484.144 801.298 484.173 794.62 484.183 787.943C484.212 777.812 482.658 767.762 479.523 757.794C479.481 757.671 479.412 757.558 479.321 757.466C479.229 757.373 479.118 757.303 478.996 757.26C478.874 757.218 478.744 757.205 478.617 757.223C478.49 757.24 478.369 757.287 478.263 757.36C456.485 772.529 433.231 785.299 408.5 795.672C408.3 795.756 408.132 795.901 408.022 796.087C407.913 796.272 407.867 796.487 407.892 796.7C408.384 801.177 409.151 805.538 410.193 809.784C411.178 813.76 412.644 817.923 414.593 822.275C422.486 839.914 433.361 855.569 447.217 869.242ZM493.49 902.445C521.839 915.867 551.761 923.533 583.256 925.444C646.313 929.274 704.932 915.399 759.112 883.817C771.964 876.32 784.865 866.704 797.814 854.971C822.642 832.479 839.47 805.032 848.299 772.63C848.627 771.424 848.362 771.274 847.503 772.181C832.682 787.842 816.423 801.968 798.726 814.56C767.183 836.985 733.204 854.759 696.788 867.882C696.73 867.901 695.982 868.108 694.544 868.504C692.47 869.073 691.133 870.371 690.535 872.397C690.053 874.038 689.802 874.877 689.782 874.916C685.006 886.64 677.021 895.551 665.828 901.649C656.7 906.618 646.631 910.087 635.622 912.055C621.09 914.661 606.887 915.114 593.011 913.416C577.881 911.563 563.243 907.848 549.098 902.271C549.04 902.242 547.906 901.683 545.696 900.592C543.632 899.579 541.446 899.208 539.14 899.478C537.056 899.719 535.994 899.84 535.956 899.84C522.235 900.563 508.166 901.022 493.75 901.215C491.888 901.244 491.801 901.654 493.49 902.445ZM329.69 878.419C373.459 886.331 417.228 891.141 460.996 892.849C462.357 892.907 462.487 892.53 461.387 891.72C447.309 881.328 435.194 869.223 425.043 855.405C418.54 846.557 413.45 838.375 409.774 830.858C404.959 821.006 401.784 810.643 400.25 799.768C400.23 799.614 400.175 799.466 400.089 799.335C400.003 799.205 399.888 799.095 399.754 799.015C399.619 798.934 399.467 798.885 399.31 798.87C399.153 798.855 398.995 798.875 398.846 798.929C371.23 809.176 343.199 811.738 314.754 806.614C314.666 806.599 314.576 806.603 314.491 806.626C314.405 806.65 314.327 806.691 314.26 806.748C314.193 806.805 314.141 806.876 314.106 806.955C314.071 807.035 314.055 807.121 314.059 807.208C315.043 831.369 319.897 854.812 328.619 877.536C328.708 877.761 328.854 877.961 329.041 878.115C329.228 878.27 329.452 878.374 329.69 878.419ZM475.108 892.067C475.938 892.376 476.705 892.646 477.409 892.878C478.152 893.119 478.948 893.244 479.798 893.254C494.773 893.389 510.771 893.095 527.792 892.371C528.873 892.333 528.96 892.019 528.053 891.43C515.519 883.325 505.315 873.517 497.441 862.005C497.397 861.938 497.337 861.883 497.266 861.845C497.196 861.807 497.116 861.787 497.035 861.787C496.954 861.787 496.873 861.807 496.8 861.845C496.727 861.883 496.664 861.938 496.616 862.005C489.707 872.127 482.466 881.883 474.891 891.271C474.841 891.333 474.806 891.405 474.79 891.482C474.774 891.56 474.777 891.641 474.798 891.718C474.819 891.796 474.858 891.867 474.912 891.928C474.966 891.989 475.033 892.036 475.108 892.067ZM561.328 898.392C576.747 903.555 592.587 906.29 608.845 906.599C623.194 906.879 637.667 904.476 652.267 899.391C665.882 894.653 675.757 886.094 681.894 873.715C682.107 873.28 681.981 873.136 681.518 873.28C642.217 885.515 602.187 893.606 561.429 897.553C560.088 897.678 560.054 897.958 561.328 898.392ZM352.472 911.534C356.718 915.22 361.388 918.279 366.483 920.711C387.46 930.717 408.235 930.379 428.807 919.698C438.234 914.806 446.865 908.582 454.7 901.026C455.067 900.679 454.999 900.491 454.497 900.462C414.164 898.503 373.961 894.065 333.888 887.146C333.473 887.069 333.362 887.219 333.555 887.595C338.322 896.733 344.627 904.712 352.472 911.534Z" fill="#A7C8E9"/>
<path d="M224.177 623.169C173.494 601.939 157.596 552.02 198.53 488.72C238.466 426.899 280.105 432.577 299.588 437.702C326.578 444.834 341.359 459.373 345.137 482.965L352.335 463.971L375.255 473.572L319.689 657.864L287.407 644.341L298.495 617.87C277.439 633.715 250.003 633.986 224.177 623.169ZM240.857 572.477C292.832 594.248 310.237 559.038 316.863 543.22C337.416 494.151 316.637 476.719 295.008 467.659C276.93 460.087 243.698 465.14 218.903 507.12C202.995 534.229 202.764 556.521 240.857 572.477Z" fill="#FF6C00"/>
</g>
<defs>
<clipPath id="clip0_1_2">
<rect width="1024" height="1024" fill="white"/>
</clipPath>
</defs>
</svg>
